<?xml version="1.0" encoding="utf-8"?>
<!-- Generator: Adobe Illustrator 23.0.2, SVG Export Plug-In . SVG Version: 6.00 Build 0)  -->
<svg version="1.1" id="Layer_1" xmlns="http://www.w3.org/2000/svg" xmlns:xlink="http://www.w3.org/1999/xlink" x="0px" y="0px"
	 viewBox="0 0 2500 1885" style="enable-background:new 0 0 2500 1885;" xml:space="preserve">
<style type="text/css">
	.st0{fill:#FFBA00;}
	.st1{fill:#EA4335;}
	.st2{fill:#EF851C;}
	.st3{fill:#0066DA;}
	.st4{fill:#2684FC;}
	.st5{fill:#00AC47;}
	.st6{fill:#00832D;}
</style>
<path class="st0" d="M1080.9,9.1H0l309.5,309.5v0.8h642"/>
<path class="st1" d="M309.7,9.1H0l309.5,309.5v0.8"/>
<path class="st2" d="M1620.3,545.2 M1180.1,548.2l440.5,0.3L1080.6,8l0,0L951.3,318.4l0,0l0,0l225.8,228.8"/>
<path class="st3" d="M1011.6,913.2l-164.7-35.2L620.1,651.1V475.1H309.7v304.6l537.2,537.2"/>
<path class="st4" d="M958,1209.9l213.7,213.7h439.7l-433.2-434l110.5-110.5l433.2,433.2l1-440.7l-212.9-212.9L1620,547.7l-442.5-0.3
	l0,0l0,0l0,0l0,0l0,0L845.9,879.1l0,0l0,0l2.3,440.4"/>
<polygon class="st5" points="1879.3,1421.7 2189.6,1421.7 2189.6,676.5 1840,326.8 1620.5,546.3 1879.3,805.1 1879.3,1421.7 "/>
<polyline class="st6" points="846.7,1316.9 628.1,1535.5 977.7,1885.1 2500,1885.1 2190.5,1577.2 2190.5,1577.2 1107.9,1577.2 
	849.2,1318.5 "/>
</svg>
